# xmcd
#
# Track frame offsets:
#	150
#	24960
#	48492
#	69437
#	93354
#	111827
#	132137
#	153807
#	176932
#	198417
#
# Disc length: 2913 seconds
#
# Revision: 0
# Processed by: cddbd v1.5.2PL0 Copyright (c) Steve Scherf et al.
# Submitted via: EasyCDDAExtractor 16.0.9.1
#
DISCID=7e0b5f0a
DTITLE=Khánh Hà - KH62: Tình Khúc Lam Phương
DYEAR=2002
DGENRE=Pop
TTITLE0=Khánh Hà - Em Đi Rồi
TTITLE1=Khánh Hà - Một Đời Tan Vỡ
TTITLE2=Khánh Hà - Mưa Lệ
TTITLE3=Khánh Hà - Như Giấc Chiêm Bao
TTITLE4=Khánh Hà - Cho Em Quên Tuổi Ngọc
TTITLE5=Thúy Hà Tú - Yêu Nhau 4 Mùa
TTITLE6=Khánh Hà - Lời Yêu Cuối
TTITLE7=Khánh Hà - Thu Sầu
TTITLE8=Khánh Hà - Chiều Tàn
TTITLE9=Khánh Hà - Một Mình
EXTD=
EXTT0=
EXTT1=
EXTT2=
EXTT3=
EXTT4=
EXTT5=
EXTT6=
EXTT7=
EXTT8=
EXTT9=
PLAYORDER=
